<!-- From the post "Reasoning Effort Is a Production Policy, Not a Model Setting" (capability-reasoning). Its own chart, styles inlined so it stands alone. -->
<svg xmlns="http://www.w3.org/2000/svg" viewBox="0 0 760 378" role="img" aria-label="Reasoning reports, problem versus working"><style>.svt{font-family:"JetBrains Mono",ui-monospace,Menlo,Consolas,monospace;font-size:12px;fill:#A1A1AA}.svs{font-family:"JetBrains Mono",ui-monospace,Menlo,Consolas,monospace;font-size:11px;fill:#8B8B94}.svb{font-family:Inter,system-ui,sans-serif;font-size:13px;fill:#FFFFFF;font-weight:600}.good{fill:#6EE7A8}.bad{fill:#F08A6E}.gridl{stroke:#27272A;stroke-width:1}.axis{stroke:#34343A;stroke-width:1}</style><text x="220" y="19" class="svs">← problem reports</text><text x="720" y="19" text-anchor="end" class="svs">working reports →</text><line x1="470" y1="26" x2="470" y2="372" class="axis"/><text x="174" y="47" text-anchor="end" class="svt">Kimi K2.5</text><rect x="428.3" y="35" width="41.7" height="18" rx="3" class="bad"/><rect x="470" y="35" width="250.0" height="18" rx="3" class="good"/><text x="422.3" y="47" text-anchor="end" class="svs">2</text><text x="726.0" y="47" class="svs">12</text><text x="174" y="75" text-anchor="end" class="svt">GPT-6 Astra</text><rect x="428.3" y="63" width="41.7" height="18" rx="3" class="bad"/><rect x="470" y="63" width="145.8" height="18" rx="3" class="good"/><text x="422.3" y="75" text-anchor="end" class="svs">2</text><text x="621.8" y="75" class="svs">7</text><text x="174" y="103" text-anchor="end" class="svt">Qwen3.8 27B</text><rect x="345.0" y="91" width="125.0" height="18" rx="3" class="bad"/><rect x="470" y="91" width="166.7" height="18" rx="3" class="good"/><text x="339.0" y="103" text-anchor="end" class="svs">6</text><text x="642.7" y="103" class="svs">8</text><text x="174" y="131" text-anchor="end" class="svt">Claude Opus 5</text><rect x="449.2" y="119" width="20.8" height="18" rx="3" class="bad"/><rect x="470" y="119" width="83.3" height="18" rx="3" class="good"/><text x="443.2" y="131" text-anchor="end" class="svs">1</text><text x="559.3" y="131" class="svs">4</text><text x="174" y="159" text-anchor="end" class="svt">Claude Fable 5.1</text><rect x="449.2" y="147" width="20.8" height="18" rx="3" class="bad"/><rect x="470" y="147" width="62.5" height="18" rx="3" class="good"/><text x="443.2" y="159" text-anchor="end" class="svs">1</text><text x="538.5" y="159" class="svs">3</text><text x="174" y="187" text-anchor="end" class="svt">GPT-5.6 Sol</text><rect x="449.2" y="175" width="20.8" height="18" rx="3" class="bad"/><rect x="470" y="175" width="20.8" height="18" rx="3" class="good"/><text x="443.2" y="187" text-anchor="end" class="svs">1</text><text x="496.8" y="187" class="svs">1</text><text x="174" y="215" text-anchor="end" class="svt">Claude Sonnet 5</text><rect x="324.2" y="203" width="145.8" height="18" rx="3" class="bad"/><text x="318.2" y="215" text-anchor="end" class="svs">7</text><text x="476.0" y="215" class="svs"></text><text x="174" y="243" text-anchor="end" class="svt">Kimi K3</text><rect x="449.2" y="231" width="20.8" height="18" rx="3" class="bad"/><rect x="470" y="231" width="62.5" height="18" rx="3" class="good"/><text x="443.2" y="243" text-anchor="end" class="svs">1</text><text x="538.5" y="243" class="svs">3</text><text x="174" y="271" text-anchor="end" class="svt">Grok 4.6</text><rect x="449.2" y="259" width="20.8" height="18" rx="3" class="bad"/><rect x="470" y="259" width="187.5" height="18" rx="3" class="good"/><text x="443.2" y="271" text-anchor="end" class="svs">1</text><text x="663.5" y="271" class="svs">9</text><text x="174" y="299" text-anchor="end" class="svt">Gemini 3.8 Flash</text><rect x="449.2" y="287" width="20.8" height="18" rx="3" class="bad"/><rect x="470" y="287" width="41.7" height="18" rx="3" class="good"/><text x="443.2" y="299" text-anchor="end" class="svs">1</text><text x="517.7" y="299" class="svs">2</text><text x="174" y="327" text-anchor="end" class="svt">Gemini 3.7 Flash</text><rect x="470" y="315" width="20.8" height="18" rx="3" class="good"/><text x="464.0" y="327" text-anchor="end" class="svs"></text><text x="496.8" y="327" class="svs">1</text><text x="174" y="355" text-anchor="end" class="svt">GPT-5.6 Sol Pro</text><rect x="470" y="343" width="20.8" height="18" rx="3" class="good"/><text x="464.0" y="355" text-anchor="end" class="svs"></text><text x="496.8" y="355" class="svs">1</text></svg>